# xmcd
#
# Track frame offsets: 
#        150
#        13110
#        24263
#        32313
#        44448
#        55543
#        68928
#        82053
#        95765
#        111610
#        125715
#        139743
#        153965
#        165303
#        178218
#        191368
#        203980
#        215115
#        227230
#        239393
#        250898
#        259725
#        280058
#
# Disc length: 3873 seconds
#
# Revision: 0
# Processed by: cddbd v1.4PL0 Copyright (c) Steve Scherf et al.
# Submitted via: ExactAudioCopy v0.90b4
#
DISCID=4c0f1f17
DTITLE=Lowell Fulson - Reconsider Baby
DYEAR=1900
DGENRE=Blues
TTITLE0=Lonely Hours
TTITLE1=Rock 'Em Dead
TTITLE2=Rock This Morning
TTITLE3=That's All Right
TTITLE4=Blue Shadows
TTITLE5=Hung Down Head
TTITLE6=Payday Blues
TTITLE7=Tollin' Blues
TTITLE8=Black Nights
TTITLE9=Blues Around Midnight
TTITLE10=Tramp
TTITLE11=Reconsider Baby
TTITLE12=I've Been Mistreated
TTITLE13=Country Boy Blues
TTITLE14=Funky Broadway
TTITLE15=Going Back To Chicago
TTITLE16=The Blues Is Killing Me
TTITLE17=River Blues (Part 1)
TTITLE18=Don't Be So Evil
TTITLE19=This Feeling
TTITLE20=Letter Home
TTITLE21=I Want To Know
TTITLE22=San Francisco Blues
EXTD=
EXTT0=
EXTT1=
EXTT2=
EXTT3=
EXTT4=
EXTT5=
EXTT6=
EXTT7=
EXTT8=
EXTT9=
EXTT10=
EXTT11=
EXTT12=
EXTT13=
EXTT14=
EXTT15=
EXTT16=
EXTT17=
EXTT18=
EXTT19=
EXTT20=
EXTT21=
EXTT22=
PLAYORDER=
